# xmcd
#
# Track frame offsets:
#	151
#	9184
#	25115
#	38358
#	52275
#	65886
#	79405
#	92936
#	110987
#	124686
#	146551
#	161498
#	178649
#	193184
#	208671
#	224472
#	239235
#	253778
#
# Disc length: 3624
#
# Revision: 1
# Processed by: cddbd v1.5.1PL0 Copyright (c) Steve Scherf et al.
# Submitted via: CDex 1.50
# Normalized: r0:DSETVAR1,TDELIM( - )
#
DISCID=150e2612
DTITLE=Various Artist - 傳世爵士音樂 1-1
DYEAR=1900
DGENRE=Jazz
TTITLE0=Nat King Cole - Paper Moon
TTITLE1=Louis Armstrong - Mack The Knife
TTITLE2=Billie Holiday - God Bless The Child
TTITLE3=Marilyn Moore - Travlin' All Alone
TTITLE4=Ella Fitzgerald - We Can't Go On This Way
TTITLE5=Sarah Vaughan - Embraceable You
TTITLE6=Roy Eldridge - Mary Had A Little Lamb
TTITLE7=Carmen McRae - All The Things You Are
TTITLE8=Bessie Smith - Alexander's Ragtime Band
TTITLE9=Ray Charles - Georgia On My Mind
TTITLE10=Joe Williams - Hurry On Down
TTITLE11=Betty Rochie - All My Life
TTITLE12=Joe Turner - Flip, Flop And Fly
TTITLE13=Bing Crosby - PS I Love You
TTITLE14=Nina Simone - Sugar In My Bowl
TTITLE15=Cab Calloway - Minnie The Moocher
TTITLE16=Ruth Brown - Fine Brown Frame
TTITLE17=Carmen McRae - All The Things You Are (Same as #8)
EXTD=
EXTT0=
EXTT1=
EXTT2=
EXTT3=
EXTT4=
EXTT5=
EXTT6=
EXTT7=
EXTT8=
EXTT9=
EXTT10=
EXTT11=
EXTT12=
EXTT13=
EXTT14=
EXTT15=
EXTT16=
EXTT17=
PLAYORDER=
